# xmcd CD database file
#
# Track frame offsets:
#	150
#	18986
#	38631
#	68596
#	89585
#	109947
#	130247
#	148880
#	166864
#	182503
#	198919
#	218770
#	234084
#
# Disc length: 3354 seconds
#
# Revision: 4
# Processed by: cddbd v1.5.2PL0 Copyright (c) Steve Scherf et al.
# Submitted via: CDex 1.51
#
DISCID=aa0d180d
DTITLE=Воскресение - Не Торопясь
DYEAR=2003
DGENRE=Rock
TTITLE0=Сотворю Тебе Мир 
TTITLE1=Не Оставь Меня 
TTITLE2=В Ваших Маленьких Домишках (Марсианская)
TTITLE3=Не Торопясь 
TTITLE4=Посмотри, Как Я Живу 
TTITLE5=Обними Меня Покрепче (Волчья)
TTITLE6=Спой Со Мной 
TTITLE7=Листопад
TTITLE8=Атлантида
TTITLE9=Ветер (Дыхание Доброго Неба) 
TTITLE10=Спешит Моя Радость 
TTITLE11=Мне Говорили (Жизнь - это пятна)
TTITLE12=Не Оставь Меня (Вар. 2)
EXTD=YEAR: 2003
EXTT0=
EXTT1=
EXTT2=
EXTT3=
EXTT4=
EXTT5=
EXTT6=
EXTT7=
EXTT8=
EXTT9=
EXTT10=
EXTT11=
EXTT12=
PLAYORDER=
